<svg width="90" height="79" viewBox="0 0 90 79" xmlns="http://www.w3.org/2000/svg">
  <g transform="translate(-5 -11)" fill="none" fill-rule="evenodd">
    <rect width="100" height="100"/>
    <g fill="#CBCBCB">
      <path d="M73.69 85.84H26.82V43.57c4.46-.28 7.99-1.8 10.5-4.5 3.06-3.31 3.75-7.53 3.89-9.85H60c.87 10.46 10.15 13.99 13.68 14.95v41.67zM44.2 17.09c1.56-1.67 3.65-2.49 6.38-2.49 2.74 0 4.82.81 6.38 2.48 2.44 2.63 2.93 6.75 3 8.94H41.2c.07-2.18.55-6.28 3-8.93zm49.04 41.42h-4.76v-2.65c0-.88-.71-1.6-1.6-1.6h-10V42.91a1.6 1.6 0 0 0-1.33-1.58c-.51-.08-12.37-2.18-12.4-13.67.06-.91.37-8.2-3.84-12.74-2.16-2.34-5.1-3.52-8.73-3.52-3.62 0-6.56 1.18-8.72 3.52-4.4 4.73-3.86 12.5-3.84 12.82 0 .06.38 5.45-3.05 9.15-2.17 2.34-5.45 3.53-9.75 3.53-.88 0-1.6.72-1.6 1.6v12.24H12.96c-.89 0-1.6.72-1.6 1.6v2.65H6.6a1.6 1.6 0 0 0 0 3.2h6.36c.88 0 1.6-.71 1.6-1.6v-2.65h9.06v29.98c0 .88.72 1.6 1.6 1.6h50.07c.88 0 1.6-.72 1.6-1.6V57.46h8.4v2.65c0 .89.71 1.6 1.6 1.6h6.35a1.6 1.6 0 0 0 0-3.2z"/>
      <path d="M62.2 76.36c-.05.06-.25.14-.62.14H39.75c-.37 0-.57-.08-.63-.14-.1-.12-.13-.45-.1-.62l.01-.26V64.29H62.3v11.19c0 .09.01.18.03.26 0 .08 0 .48-.11.62zM39.04 61.09H62.3v-3.63H39.03v3.63zm26.46-4.95a1.6 1.6 0 0 0-1.58-1.88h-26.5a1.6 1.6 0 0 0-1.58 1.89v19.23c-.05.5-.1 1.92.85 3.04.5.58 1.42 1.28 3.07 1.28h21.83c1.64 0 2.58-.7 3.07-1.28a4.1 4.1 0 0 0 .84-3.04V56.14z"/>
    </g>
  </g>
</svg>
