<?xml version="1.0" encoding="UTF-8"?>
<svg xmlns="http://www.w3.org/2000/svg" xmlns:xlink="http://www.w3.org/1999/xlink" width="30pt" height="30pt" viewBox="0 0 30 30" version="1.1">
<g id="surface15746816">
<path style=" stroke:none;fill-rule:nonzero;fill:rgb(40%,40%,40%);fill-opacity:1;" d="M 12 27 L 10 27 C 9.613281 27 9.261719 26.777344 9.097656 26.429688 C 8.929688 26.078125 8.980469 25.664062 9.226562 25.367188 L 17.707031 15 L 9.226562 4.632812 C 8.980469 4.335938 8.929688 3.921875 9.097656 3.570312 C 9.261719 3.222656 9.613281 3 10 3 L 12 3 C 12.300781 3 12.585938 3.136719 12.773438 3.367188 L 21.773438 14.367188 C 22.074219 14.734375 22.074219 15.265625 21.773438 15.632812 L 12.773438 26.632812 C 12.585938 26.863281 12.300781 27 12 27 Z M 12 27 "/>
</g>
</svg>
