<?xml version="1.0" encoding="UTF-8"?>
<svg xmlns="http://www.w3.org/2000/svg" xmlns:xlink="http://www.w3.org/1999/xlink" width="30pt" height="30pt" viewBox="0 0 30 30" version="1.1">
<g id="surface32354">
<path style=" stroke:none;fill-rule:nonzero;fill:rgb(34.117647%,36.862745%,36.862745%);fill-opacity:1;" d="M 3 12 L 3 10 C 3 9.613281 3.222656 9.261719 3.570312 9.097656 C 3.921875 8.929688 4.335938 8.980469 4.632812 9.226562 L 15 17.707031 L 25.367188 9.226562 C 25.664062 8.980469 26.078125 8.929688 26.429688 9.097656 C 26.777344 9.261719 27 9.613281 27 10 L 27 12 C 27 12.300781 26.863281 12.585938 26.632812 12.773438 L 15.632812 21.773438 C 15.265625 22.074219 14.734375 22.074219 14.367188 21.773438 L 3.367188 12.773438 C 3.136719 12.585938 3 12.300781 3 12 Z M 3 12 "/>
</g>
</svg>
