<?xml version="1.0" encoding="UTF-8"?>
<svg xmlns="http://www.w3.org/2000/svg" xmlns:xlink="http://www.w3.org/1999/xlink" width="30pt" height="30pt" viewBox="0 0 30 30" version="1.1">
<g id="surface15746579">
<path style=" stroke:none;fill-rule:nonzero;fill:rgb(40%,40%,40%);fill-opacity:1;" d="M 17 3 L 19 3 C 19.386719 3 19.738281 3.222656 19.902344 3.570312 C 20.070312 3.921875 20.019531 4.335938 19.773438 4.632812 L 11.292969 15 L 19.773438 25.367188 C 20.019531 25.664062 20.070312 26.078125 19.902344 26.429688 C 19.738281 26.777344 19.386719 27 19 27 L 17 27 C 16.699219 27 16.414062 26.863281 16.226562 26.632812 L 7.226562 15.632812 C 6.925781 15.265625 6.925781 14.734375 7.226562 14.367188 L 16.226562 3.367188 C 16.414062 3.136719 16.699219 3 17 3 Z M 17 3 "/>
</g>
</svg>
