<?xml version="1.0" encoding="UTF-8"?>
<svg xmlns="http://www.w3.org/2000/svg" xmlns:xlink="http://www.w3.org/1999/xlink" width="50pt" height="50pt" viewBox="0 0 50 50" version="1.1">
<g id="surface996565">
<path style="fill-rule:nonzero;fill:rgb(0%,0%,0%);fill-opacity:1;stroke-width:1;stroke-linecap:butt;stroke-linejoin:round;stroke:rgb(0%,0%,0%);stroke-opacity:1;stroke-miterlimit:10;" d="M 154.228433 156.337337 C 154.917882 157.391788 154.998994 158.743649 154.390656 159.865694 C 153.795838 160.987739 152.633237 161.677188 151.362487 161.677188 L 126.109721 161.677188 C 124.987676 161.677188 123.933224 161.122925 123.284331 160.203659 L 86 106.64292 L 48.715669 160.203659 C 48.066776 161.122925 47.012324 161.677188 45.890279 161.677188 L 20.637513 161.677188 C 19.366763 161.677188 18.204162 160.97422 17.609344 159.865694 C 17.001006 158.743649 17.082118 157.391788 17.771567 156.337337 L 64.667631 86 L 17.771567 15.662663 C 17.082118 14.608212 17.001006 13.256351 17.609344 12.134306 C 18.204162 11.012261 19.366763 10.322812 20.637513 10.322812 L 45.890279 10.322812 C 47.012324 10.322812 48.066776 10.877075 48.715669 11.796341 L 86 65.35708 L 123.284331 11.796341 C 123.933224 10.877075 124.987676 10.322812 126.109721 10.322812 L 151.362487 10.322812 C 152.633237 10.322812 153.795838 11.02578 154.390656 12.134306 C 154.998994 13.256351 154.917882 14.608212 154.228433 15.662663 L 107.332369 86 Z M 154.228433 156.337337 " transform="matrix(0.288953,0,0,0.288953,0.15,0.15)"/>
<path style=" stroke:none;fill-rule:nonzero;fill:rgb(0%,0%,0%);fill-opacity:1;" d="M 31.164062 25 L 44.714844 4.675781 C 44.914062 4.371094 44.9375 3.980469 44.761719 3.65625 C 44.589844 3.335938 44.253906 3.132812 43.886719 3.132812 L 36.589844 3.132812 C 36.265625 3.132812 35.960938 3.292969 35.773438 3.558594 L 25 19.035156 L 14.226562 3.558594 C 14.039062 3.292969 13.734375 3.132812 13.410156 3.132812 L 6.113281 3.132812 C 5.746094 3.132812 5.410156 3.332031 5.238281 3.65625 C 5.0625 3.980469 5.085938 4.371094 5.285156 4.675781 L 18.835938 25 L 5.285156 45.324219 C 5.085938 45.628906 5.0625 46.019531 5.238281 46.34375 C 5.410156 46.664062 5.746094 46.867188 6.113281 46.867188 L 13.410156 46.867188 C 13.734375 46.867188 14.039062 46.707031 14.226562 46.441406 L 25 30.964844 L 35.773438 46.441406 C 35.960938 46.707031 36.265625 46.867188 36.589844 46.867188 L 43.886719 46.867188 C 44.253906 46.867188 44.589844 46.667969 44.761719 46.34375 C 44.9375 46.019531 44.914062 45.628906 44.714844 45.324219 Z M 31.164062 25 "/>
</g>
</svg>
