<?xml version="1.0" encoding="UTF-8"?>
<svg xmlns="http://www.w3.org/2000/svg" xmlns:xlink="http://www.w3.org/1999/xlink" width="50pt" height="50pt" viewBox="0 0 50 50" version="1.1">
<g id="surface1116538">
<path style=" stroke:none;fill-rule:nonzero;fill:rgb(34.117647%,34.117647%,34.117647%);fill-opacity:1;" d="M 31.203125 25 L 44.832031 4.554688 C 45.035156 4.246094 45.054688 3.855469 44.882812 3.527344 C 44.707031 3.203125 44.367188 3 44 3 L 36.660156 3 C 36.332031 3 36.027344 3.160156 35.839844 3.429688 L 25 19 L 14.160156 3.429688 C 13.972656 3.160156 13.667969 3 13.339844 3 L 6 3 C 5.632812 3 5.292969 3.203125 5.117188 3.527344 C 4.945312 3.851562 4.964844 4.246094 5.167969 4.554688 L 18.796875 25 L 5.167969 45.445312 C 4.964844 45.753906 4.945312 46.144531 5.117188 46.472656 C 5.292969 46.796875 5.632812 47 6 47 L 13.339844 47 C 13.667969 47 13.972656 46.839844 14.160156 46.570312 L 25 31 L 35.839844 46.570312 C 36.027344 46.839844 36.332031 47 36.660156 47 L 44 47 C 44.367188 47 44.707031 46.796875 44.882812 46.472656 C 45.054688 46.148438 45.035156 45.753906 44.832031 45.445312 Z M 31.203125 25 "/>
</g>
</svg>
