<?xml version="1.0" encoding="utf-8"?>
<svg xmlns="http://www.w3.org/2000/svg" viewBox="0 0 16 16" fill="#878a8a"><path style="line-height:normal;text-indent:0;text-align:start;text-decoration-line:none;text-decoration-style:solid;text-decoration-color:#000;text-transform:none;block-progression:tb;isolation:auto;mix-blend-mode:normal" d="M 7.5 2 C 5.7851143 2 4.2199146 2.2903086 3.03125 2.8925781 C 1.8425854 3.4948476 1 4.4872238 1 5.75 L 1 10.625 C 1 11.672354 1.8645568 12.49807 3.0371094 13.072266 C 4.209662 13.646461 5.7741268 14 7.5 14 C 9.2258732 14 10.790338 13.646461 11.962891 13.072266 C 13.135443 12.49807 14 11.672354 14 10.625 L 14 5.5 L 14 5 L 13 5 L 13 5.5 C 13 6.0833333 12.738885 6.4761094 12.261719 6.8339844 C 11.784552 7.1918594 11.090861 7.4626362 10.378906 7.640625 C 8.9549964 7.9966026 7.5 8 7.5 8 C 5.9065848 8 4.4657845 7.6928739 3.4667969 7.2324219 C 2.9673031 7.0021959 2.5804445 6.7326389 2.3378906 6.4707031 C 2.0953367 6.2087674 2 5.9743231 2 5.75 C 2 4.9137762 2.4995864 4.2811836 3.4824219 3.7832031 C 4.4652573 3.2852226 5.9008857 3 7.5 3 C 9.100271 3 10.009839 3.2807065 10.474609 3.5761719 C 10.93938 3.8716372 11 4.1481999 11 4.3515625 C 11 4.6873042 10.747601 5.080298 10.138672 5.4199219 C 9.529743 5.7595457 8.6061985 6 7.5 6 C 7.5 6 6.7189029 5.9981552 5.9609375 5.8808594 C 5.5819548 5.8222115 5.2102986 5.7298856 4.984375 5.625 C 4.8758383 5.5746116 4.8098424 5.5231867 4.7832031 5.4960938 C 4.7790517 5.5103302 4.7615756 5.5290025 4.8183594 5.4824219 C 4.8965063 5.4183168 5.0612788 5.3275135 5.2792969 5.2519531 C 5.715333 5.1008324 6.3571992 5 7 5 L 7 4 C 6.2578008 4 5.5343857 4.1045113 4.9511719 4.3066406 C 4.6595649 4.4077053 4.401103 4.5305582 4.1835938 4.7089844 C 3.9660844 4.8874105 3.7695312 5.1621654 3.7695312 5.5 C 3.7695314 5.759625 3.8882734 6.0044629 4.0410156 6.1699219 C 4.1937579 6.3353808 4.3725555 6.4430678 4.5625 6.53125 C 4.9423889 6.7076144 5.3798264 6.8027885 5.8085938 6.8691406 C 6.6661284 7.0018448 7.5 7 7.5 7 C 8.7478015 7 9.824382 6.7405949 10.626953 6.2929688 C 11.429524 5.8453426 12 5.1648208 12 4.3515625 C 12 3.8319251 11.718448 3.1817065 11.011719 2.7324219 C 10.304989 2.2831372 9.213729 2 7.5 2 z M 2 7.484375 C 2.3043433 7.7284822 2.6435116 7.9538071 3.0488281 8.140625 C 4.2215905 8.681173 5.7804152 9 7.5 9 C 7.5 9 9.0450036 9.0034 10.621094 8.609375 C 11.409139 8.4123638 12.215448 8.1206406 12.863281 7.6347656 C 12.912486 7.5978617 12.952773 7.5494847 13 7.5097656 L 13 10.625 C 13 10.991695 12.662079 11.46409 12 11.892578 L 12 10 L 11 10 L 11 12.386719 C 10.689153 12.502551 10.3595 12.609276 10 12.697266 L 10 11 L 9 11 L 9 12.884766 C 8.6770605 12.929541 8.3438675 12.95897 8 12.974609 L 8 10 L 7 10 L 7 12.974609 C 6.6573266 12.959024 6.3226609 12.928014 6 12.884766 L 6 11 L 5 11 L 5 12.699219 C 4.6377424 12.613215 4.3092752 12.506329 4 12.388672 L 4 10 L 3 10 L 3 11.892578 C 2.3379212 11.46409 2 10.991695 2 10.625 L 2 7.484375 z" fill="#878a8a"/></svg>
