<?xml version="1.0"?><svg xmlns="http://www.w3.org/2000/svg"  viewBox="0 0 24 24" width="24px" height="24px">    <path d="M 5 3 C 3.897 3 3 3.897 3 5 L 3 9 C 3 10.103 3.897 11 5 11 L 9 11 C 10.103 11 11 10.103 11 9 L 11 5 C 11 3.897 10.103 3 9 3 L 5 3 z M 15 3 C 13.897 3 13 3.897 13 5 L 13 9 C 13 10.103 13.897 11 15 11 L 19 11 C 20.103 11 21 10.103 21 9 L 21 5 C 21 3.897 20.103 3 19 3 L 15 3 z M 5 13 C 3.897 13 3 13.897 3 15 L 3 19 C 3 20.103 3.897 21 5 21 L 9 21 C 10.103 21 11 20.103 11 19 L 11 15 C 11 13.897 10.103 13 9 13 L 5 13 z M 15 13 C 13.897 13 13 13.897 13 15 L 13 19 C 13 20.103 13.897 21 15 21 L 19 21 C 20.103 21 21 20.103 21 19 L 21 15 C 21 13.897 20.103 13 19 13 L 15 13 z"/></svg>