<?xml version="1.0" encoding="UTF-8"?>
<svg xmlns="http://www.w3.org/2000/svg" xmlns:xlink="http://www.w3.org/1999/xlink" width="60pt" height="60pt" viewBox="0 0 60 60" version="1.1">
<g id="surface1689767">
<path style=" stroke:none;fill-rule:nonzero;fill:rgb(17.647059%,21.176471%,21.176471%);fill-opacity:1;" d="M 19.089844 8 C 11.859375 8 6 13.859375 6 21.089844 C 6 33.675781 20.597656 45.699219 27.417969 51.054688 C 27.425781 51.058594 27.429688 51.066406 27.4375 51.070312 C 27.484375 51.105469 27.546875 51.160156 27.59375 51.195312 L 27.597656 51.191406 C 28.289062 51.714844 29.132812 51.996094 30 52 C 30.867188 52 31.714844 51.714844 32.40625 51.191406 L 32.40625 51.195312 C 32.417969 51.183594 32.441406 51.171875 32.453125 51.160156 C 32.464844 51.152344 32.476562 51.140625 32.488281 51.132812 C 32.5 51.121094 32.515625 51.109375 32.527344 51.097656 C 39.328125 45.761719 54 33.703125 54 21.089844 C 54 13.859375 48.140625 8 40.910156 8 C 34 8 30 14 30 14 C 30 14 26 8 19.089844 8 Z M 19.089844 8 "/>
</g>
</svg>
