<svg fill="#000000" xmlns="http://www.w3.org/2000/svg"  viewBox="0 0 26 26" width="26px" height="26px"><path d="M 13 0 C 9.675781 0 7 2.675781 7 6 L 7 10 C 4.800781 10 3 11.800781 3 14 L 3 22 C 3 24.199219 4.800781 26 7 26 L 19 26 C 21.199219 26 23 24.199219 23 22 L 23 14 C 23 11.800781 21.199219 10 19 10 L 19 6 C 19 2.675781 16.324219 0 13 0 Z M 13 2 C 15.277344 2 17 3.722656 17 6 L 17 10 L 9 10 L 9 6 C 9 3.722656 10.722656 2 13 2 Z M 13 15 C 14.101563 15 15 15.898438 15 17 C 15 17.699219 14.601563 18.386719 14 18.6875 L 14 21 C 14 21.601563 13.601563 22 13 22 C 12.398438 22 12 21.601563 12 21 L 12 18.6875 C 11.398438 18.386719 11 17.699219 11 17 C 11 15.898438 11.898438 15 13 15 Z"/></svg>