<svg xmlns="http://www.w3.org/2000/svg" viewBox="0 0 64 64" width="256px" height="256px"><radialGradient id="zNA~NbUUM_UEi61k6q3eBa" cx="32" cy="4614.5" r="30.775" gradientTransform="translate(0 -4582)" gradientUnits="userSpaceOnUse"><stop offset="0" stop-color="#f4e9c3"/><stop offset=".219" stop-color="#f8eecd"/><stop offset=".644" stop-color="#fdf4dc"/><stop offset="1" stop-color="#fff6e1"/></radialGradient><path fill="url(#zNA~NbUUM_UEi61k6q3eBa)" d="M64,25L64,25c0-2.761-2.239-5-5-5h-3c-2.761,0-5-2.238-5-5l0,0c0-2.762,2.238-5,5-5h0.565	C58.48,10,60,8.48,60,6.605V6.5C60,4.567,58.433,3,56.5,3h-46C8.574,3,7.01,4.556,7,6.483V6.5C6.99,8.43,8.553,10,10.483,10H11	c2.209,0,4,1.791,4,4l0,0c0,2.209-1.791,4-4,4H5c-2.761,0-5,2.239-5,5l0,0c0,2.761,2.239,5,5,5h1c2.209,0,4,1.791,4,4l0,0	c0,2.209-1.791,4-4,4H5.5C2.462,36,0,38.462,0,41.5l0,0C0,44.538,2.462,47,5.5,47H12c1.657,0,3,1.343,3,3l0,0c0,1.657-1.343,3-3,3	H9.5C7.015,53,5,55.015,5,57.5l0,0C5,59.985,7.015,62,9.5,62H33h22c2.209,0,4-1.791,4-4l0,0c0-2.209-1.791-4-4-4h-2.5	c-1.933,0-3.5-1.567-3.5-3.5l0,0c0-1.933,1.567-3.5,3.5-3.5H60c2.209,0,4-1.791,4-4l0,0c0-2.209-1.791-4-4-4h-1.5	c-2.485,0-4.5-2.015-4.5-4.5l0,0c0-2.485,2.015-4.5,4.5-4.5H59C61.761,30,64,27.761,64,25z"/><linearGradient id="zNA~NbUUM_UEi61k6q3eBb" x1="32.401" x2="31.635" y1="12.032" y2="54.032" gradientTransform="matrix(1 0 0 -1 0 66)" gradientUnits="userSpaceOnUse"><stop offset="0" stop-color="#e3714d"/><stop offset=".25" stop-color="#e4754e"/><stop offset="1" stop-color="#e77b50"/></linearGradient><path fill="url(#zNA~NbUUM_UEi61k6q3eBb)" d="M43,17H21l0,0c0.662-1.325,1.107-3.747,1.316-5.214l0.316-2.211	C22.843,8.098,24.109,7,25.602,7h12.796c1.493,0,2.759,1.098,2.97,2.576l0.316,2.211C41.893,13.253,42.338,15.675,43,17L43,17z M21,47c0.662,1.325,1.107,3.747,1.316,5.214l0.316,2.211C22.843,55.902,24.109,57,25.602,57h12.796c1.493,0,2.759-1.098,2.97-2.576	l0.316-2.211C41.893,50.747,42.338,48.325,43,47l0,0H21L21,47z"/><linearGradient id="zNA~NbUUM_UEi61k6q3eBc" x1="32" x2="32" y1="15.383" y2="58.052" gradientTransform="matrix(1 0 0 -1 0 66)" gradientUnits="userSpaceOnUse"><stop offset="0" stop-color="#feaa53"/><stop offset=".612" stop-color="#ffcd49"/><stop offset="1" stop-color="#ffde44"/></linearGradient><path fill="url(#zNA~NbUUM_UEi61k6q3eBc)" d="M32,51L32,51c-10.493,0-19-8.507-19-19l0,0c0-10.493,8.507-19,19-19l0,0	c10.493,0,19,8.507,19,19l0,0C51,42.493,42.493,51,32,51z"/><linearGradient id="zNA~NbUUM_UEi61k6q3eBd" x1="32" x2="32" y1="50.106" y2="5.45" gradientTransform="matrix(1 0 0 -1 0 66)" gradientUnits="userSpaceOnUse"><stop offset="0" stop-color="#dff9ff"/><stop offset="0" stop-color="#dff9ff"/><stop offset=".173" stop-color="#d8f8ff"/><stop offset=".423" stop-color="#c5f4ff"/><stop offset=".72" stop-color="#a5eeff"/><stop offset="1" stop-color="#81e7ff"/></linearGradient><path fill="url(#zNA~NbUUM_UEi61k6q3eBd)" d="M47.44,32c0,4.26-1.73,8.12-4.52,10.92c-0.79,0.79-1.66,1.49-2.6,2.08	c-0.5,0.33-1.03,0.62-1.57,0.88c-2.04,1-4.33,1.56-6.75,1.56c-8.19,0-14.89-6.37-15.4-14.44c-0.03-0.33-0.04-0.66-0.04-1	c0-4.26,1.73-8.12,4.52-10.92c0.79-0.79,1.67-1.49,2.61-2.08c2.4-1.55,5.25-2.44,8.31-2.44c4.26,0,8.12,1.73,10.92,4.52	c2.12,2.12,3.62,4.86,4.22,7.92c0.07,0.33,0.13,0.66,0.17,1C47.4,30.65,47.44,31.32,47.44,32z"/><linearGradient id="zNA~NbUUM_UEi61k6q3eBe" x1="41.218" x2="41.218" y1="8.053" y2="35.116" gradientTransform="matrix(1 0 0 -1 0 66)" gradientUnits="userSpaceOnUse"><stop offset="0" stop-color="#89e4fa"/><stop offset=".406" stop-color="#94e8fc"/><stop offset="1" stop-color="#acf0ff"/></linearGradient><path fill="url(#zNA~NbUUM_UEi61k6q3eBe)" d="M47.44,32c0,4.26-1.73,8.12-4.52,10.92c-0.79,0.79-1.66,1.49-2.6,2.08	c-0.5,0.33-1.03,0.62-1.57,0.88c-1.1-0.34-1.86-1.41-1.74-2.64c0.13-1.3,1.33-2.24,2.63-2.24h0.86c0.96,0,1.84-0.39,2.47-1.03	C43.61,39.34,44,38.46,44,37.5c0-1.93-1.57-3.5-3.5-3.5h-3c-1.47,0-2.64-1.26-2.49-2.76c0.13-1.3,1.33-2.24,2.63-2.24h9.5	c0.07,0.33,0.13,0.66,0.17,1C47.4,30.65,47.44,31.32,47.44,32z"/><linearGradient id="zNA~NbUUM_UEi61k6q3eBf" x1="22.78" x2="22.78" y1="28.66" y2="73.953" gradientTransform="matrix(1 0 0 -1 0 66)" gradientUnits="userSpaceOnUse"><stop offset="0" stop-color="#ecf9fd"/><stop offset=".848" stop-color="#f2fdff"/><stop offset="1" stop-color="#f4feff"/></linearGradient><path fill="url(#zNA~NbUUM_UEi61k6q3eBf)" d="M29,21.5c0,1.38-1.12,2.5-2.5,2.5H23c-0.55,0-1.05,0.22-1.41,0.59C21.22,24.95,21,25.45,21,26	c0,1.1,0.9,2,2,2h0.5c0.69,0,1.32,0.28,1.77,0.73C25.72,29.18,26,29.81,26,30.5c0,1.38-1.12,2.5-2.5,2.5h-6.9	c-0.03-0.33-0.04-0.66-0.04-1c0-4.26,1.73-8.12,4.52-10.92c0.79-0.79,1.67-1.49,2.61-2.08h2.81c0.69,0,1.32,0.28,1.77,0.73	C28.72,20.18,29,20.81,29,21.5z"/><linearGradient id="zNA~NbUUM_UEi61k6q3eBg" x1="35.501" x2="35.501" y1="44.404" y2="22.452" gradientTransform="matrix(1 0 0 -1 0 66)" gradientUnits="userSpaceOnUse"><stop offset="0" stop-color="#a4a4a4"/><stop offset=".619" stop-color="gray"/><stop offset="1" stop-color="#6f6f6f"/><stop offset="1" stop-color="#6f6f6f"/></linearGradient><path fill="url(#zNA~NbUUM_UEi61k6q3eBg)" d="M31.998,34c-0.417,0-0.838-0.13-1.198-0.4c-0.884-0.662-1.063-1.916-0.399-2.8l7-9	c0.662-0.882,1.914-1.063,2.8-0.399c0.884,0.662,1.063,1.916,0.399,2.8l-7,9C33.207,33.724,32.606,34,31.998,34z"/><linearGradient id="zNA~NbUUM_UEi61k6q3eBh" x1="35" x2="35" y1="44.404" y2="22.452" gradientTransform="matrix(1 0 0 -1 0 66)" gradientUnits="userSpaceOnUse"><stop offset="0" stop-color="#a4a4a4"/><stop offset=".619" stop-color="gray"/><stop offset="1" stop-color="#6f6f6f"/><stop offset="1" stop-color="#6f6f6f"/></linearGradient><path fill="url(#zNA~NbUUM_UEi61k6q3eBh)" d="M37.999,39c-0.451,0-0.905-0.152-1.279-0.464l-6-5c-0.849-0.707-0.963-1.968-0.256-2.816	s1.968-0.963,2.816-0.256l6,5c0.849,0.707,0.963,1.968,0.256,2.816C39.141,38.755,38.572,39,37.999,39z"/><linearGradient id="zNA~NbUUM_UEi61k6q3eBi" x1="32.35" x2="31.754" y1="38.546" y2="30.801" gradientTransform="matrix(1 0 0 -1 0 66)" gradientUnits="userSpaceOnUse"><stop offset="0" stop-color="#a4a4a4"/><stop offset=".619" stop-color="gray"/><stop offset="1" stop-color="#6f6f6f"/><stop offset="1" stop-color="#6f6f6f"/></linearGradient><circle cx="32" cy="32" r="4" fill="url(#zNA~NbUUM_UEi61k6q3eBi)"/></svg>