<svg xmlns="http://www.w3.org/2000/svg" viewBox="0 0 64 64" width="256px" height="256px"><radialGradient id="4jiZo3ZK5MfgRPKuURvwja" cx="32.5" cy="31.5" r="30.516" gradientUnits="userSpaceOnUse" spreadMethod="reflect"><stop offset="0" stop-color="#afeeff"/><stop offset=".193" stop-color="#bbf1ff"/><stop offset=".703" stop-color="#d7f8ff"/><stop offset="1" stop-color="#e1faff"/></radialGradient><path fill="url(#4jiZo3ZK5MfgRPKuURvwja)" d="M59.107,20H60.5c2.168,0,3.892-1.998,3.422-4.243C63.58,14.122,62.055,13,60.385,13l-7.278,0 c-0.996,0-1.92-0.681-2.08-1.664C50.824,10.083,51.785,9,53,9l3.385,0c1.67,0,3.195-1.122,3.537-2.757C60.392,3.998,58.668,2,56.5,2 H34.006H32.5L8.614,2C6.944,2,5.42,3.122,5.078,4.757C4.608,7.002,6.332,9,8.5,9h1.393c0.996,0,1.92,0.681,2.08,1.664 C12.176,11.917,11.215,13,10,13l-5.385,0c-1.67,0-3.195,1.122-3.537,2.757C0.608,18.002,2.332,20,4.5,20H18v12L4.615,32 c-1.67,0-3.195,1.122-3.537,2.757C0.608,37.002,2.332,39,4.5,39h0.393c0.996,0,1.92,0.681,2.08,1.664C7.176,41.917,6.215,43,5,43 H4.5c-2.168,0-3.892,1.998-3.422,4.243C1.42,48.878,2.944,50,4.614,50h4.785c1.494,0,2.414,0.681,2.574,1.664 C12.176,52.917,11.215,54,10,54l-1.385,0c-1.67,0-3.195,1.122-3.537,2.757C4.608,59.002,6.332,61,8.5,61h22.494H32.5l27.886,0 c1.67,0,3.195-1.122,3.537-2.757C64.392,55.998,62.668,54,60.5,54h-0.393c-0.996,0-1.92-0.681-2.08-1.664 C57.824,51.083,58.785,50,60,50l0.385,0c1.67,0,3.195-1.122,3.537-2.757C64.392,44.997,62.668,43,60.5,43H47v-8c0-2.209,1.791-4,4-4 l8.385,0c1.67,0,3.195-1.122,3.537-2.757C63.392,25.998,61.668,24,59.5,24H59c-1.215,0-2.176-1.083-1.973-2.336 C57.187,20.681,58.111,20,59.107,20z"/><linearGradient id="4jiZo3ZK5MfgRPKuURvwjb" x1="32" x2="32" y1="42.166" y2="55.525" gradientUnits="userSpaceOnUse" spreadMethod="reflect"><stop offset="0" stop-color="#a4a4a4"/><stop offset=".63" stop-color="#7f7f7f"/><stop offset="1" stop-color="#6f6f6f"/></linearGradient><path fill="url(#4jiZo3ZK5MfgRPKuURvwjb)" d="M54,46H38l-10-2H10c-1.105,0-2,0.895-2,2v4c0,1.105,0.895,2,2,2h16 c0.914,0,1.675-0.616,1.915-1.453L33,52h21c1.105,0,2-0.895,2-2v-2C56,46.895,55.105,46,54,46z"/><linearGradient id="4jiZo3ZK5MfgRPKuURvwjc" x1="32" x2="32" y1="46" y2="13" gradientUnits="userSpaceOnUse" spreadMethod="reflect"><stop offset="0" stop-color="#ff8b67"/><stop offset=".847" stop-color="#ffa76a"/><stop offset="1" stop-color="#ffad6b"/><stop offset="1" stop-color="#ffad6b"/></linearGradient><path fill="url(#4jiZo3ZK5MfgRPKuURvwjc)" d="M39.098,34c-2.913,0-5.21-2.481-4.985-5.386l0.875-11.309c0.206-2.708-2.289-4.83-4.929-4.191 l-17.006,4.142C11.261,17.693,10,19.298,10,21.143V44h8.901c3.391,0,6.774,0.335,10.099,1l0,0c3.325,0.665,6.708,1,10.099,1H54v-5 c0-3.866-3.134-7-7-7H39.098z"/><linearGradient id="4jiZo3ZK5MfgRPKuURvwjd" x1="29" x2="29" y1="12.898" y2="35.068" gradientUnits="userSpaceOnUse" spreadMethod="reflect"><stop offset="0" stop-color="#a4a4a4"/><stop offset=".63" stop-color="#7f7f7f"/><stop offset="1" stop-color="#6f6f6f"/></linearGradient><path fill="url(#4jiZo3ZK5MfgRPKuURvwjd)" d="M31,27L31,27c0,1.1-0.9,2-2,2h0c-1.1,0-2-0.9-2-2v0c0-1.1,0.9-2,2-2h0C30.1,25,31,25.9,31,27z M29,18L29,18c-1.1,0-2,0.9-2,2v0c0,1.1,0.9,2,2,2h0c1.1,0,2-0.9,2-2v0C31,18.9,30.1,18,29,18z"/><linearGradient id="4jiZo3ZK5MfgRPKuURvwje" x1="14.5" x2="14.5" y1="30" y2="16.19" gradientUnits="userSpaceOnUse" spreadMethod="reflect"><stop offset="0" stop-color="#ffa578"/><stop offset=".335" stop-color="#ffab78"/><stop offset="1" stop-color="#ffb179"/></linearGradient><path fill="url(#4jiZo3ZK5MfgRPKuURvwje)" d="M12.59,21.59C12.22,21.95,12,22.45,12,23c0,1.1,0.9,2,2,2h0.5c0.69,0,1.32,0.28,1.77,0.73 C16.72,26.18,17,26.81,17,27.5c0,1.38-1.12,2.5-2.5,2.5H10v-8.86c0-1.84,1.26-3.45,3.05-3.88l4.4-1.07C18.36,16.56,19,17.45,19,18.5 c0,1.38-1.12,2.5-2.5,2.5H14C13.45,21,12.95,21.22,12.59,21.59z"/><linearGradient id="4jiZo3ZK5MfgRPKuURvwjf" x1="47" x2="47" y1="46" y2="34" gradientUnits="userSpaceOnUse" spreadMethod="reflect"><stop offset="0" stop-color="#ff8362"/><stop offset=".449" stop-color="#fe886c"/><stop offset="1" stop-color="#fe8c72"/></linearGradient><path fill="url(#4jiZo3ZK5MfgRPKuURvwjf)" d="M54,41v5h-9.5c-0.69,0-1.32-0.28-1.77-0.73C42.28,44.82,42,44.19,42,43.5 c0-1.38,1.12-2.5,2.5-2.5H46c0.55,0,1.05-0.22,1.41-0.59C47.78,40.05,48,39.55,48,39c0-1.1-0.9-2-2-2h-3.5 c-0.69,0-1.32-0.28-1.77-0.73C40.28,35.82,40,35.19,40,34.5c0-0.17,0.02-0.34,0.05-0.5H47C50.87,34,54,37.13,54,41z"/><linearGradient id="4jiZo3ZK5MfgRPKuURvwjg" x1="13.5" x2="13.5" y1="44" y2="37" gradientUnits="userSpaceOnUse" spreadMethod="reflect"><stop offset="0" stop-color="#ff8362"/><stop offset=".449" stop-color="#fe886c"/><stop offset="1" stop-color="#fe8c72"/></linearGradient><path fill="url(#4jiZo3ZK5MfgRPKuURvwjg)" d="M17,44h-7v-7C13.87,37,17,40.13,17,44z"/></svg>