<svg xmlns="http://www.w3.org/2000/svg" viewBox="0 0 64 64" width="256px" height="256px"><radialGradient id="~kcgT~gaMcm4K3_k5qXhZa" cx="32" cy="31.5" r="30.775" gradientUnits="userSpaceOnUse" spreadMethod="reflect"><stop offset="0" stop-color="#f4e9c3"/><stop offset=".219" stop-color="#f8eecd"/><stop offset=".644" stop-color="#fdf4dc"/><stop offset="1" stop-color="#fff6e1"/></radialGradient><path fill="url(#~kcgT~gaMcm4K3_k5qXhZa)" d="M5.5,61L5.5,61C3.015,61,1,58.985,1,56.5v0C1,54.015,3.015,52,5.5,52h0 c2.485,0,4.5,2.015,4.5,4.5v0C10,58.985,7.985,61,5.5,61z M64,24L64,24c0-2.761-2.239-5-5-5h-5c-2.761,0-5-2.238-5-5v0 c0-2.762,2.238-5,5-5h0.565C56.48,9,58,7.48,58,5.605L58,5.5C58,3.567,56.433,2,54.5,2l-44,0C8.574,2,7.01,3.556,7,5.483L7,5.5 C6.99,7.43,8.553,9,10.483,9H11c2.209,0,4,1.791,4,4v0c0,2.209-1.791,4-4,4H5c-2.761,0-5,2.239-5,5v0c0,2.761,2.239,5,5,5h1 c2.209,0,4,1.791,4,4v0c0,2.209-1.791,4-4,4H5.5C2.462,35,0,37.462,0,40.5v0C0,43.538,2.462,46,5.5,46H19c1.657,0,3,1.343,3,3v0 c0,1.657-1.343,3-3,3h-1.5c-2.485,0-4.5,2.015-4.5,4.5v0c0,2.485,2.015,4.5,4.5,4.5H33h22c2.209,0,4-1.791,4-4v0 c0-2.209-1.791-4-4-4h-6.5c-1.933,0-3.5-1.567-3.5-3.5v0c0-1.933,1.567-3.5,3.5-3.5H60c2.209,0,4-1.791,4-4v0c0-2.209-1.791-4-4-4 h-1.5c-2.485,0-4.5-2.015-4.5-4.5v0c0-2.485,2.015-4.5,4.5-4.5H59C61.761,29,64,26.761,64,24z"/><linearGradient id="~kcgT~gaMcm4K3_k5qXhZb" x1="32" x2="32" y1="20.685" y2="7.86" gradientUnits="userSpaceOnUse" spreadMethod="reflect"><stop offset="0" stop-color="#155cde"/><stop offset=".486" stop-color="#2185e6"/><stop offset="1" stop-color="#2eb5f0"/></linearGradient><path fill="url(#~kcgT~gaMcm4K3_k5qXhZb)" d="M21 12H43V23H21z"/><linearGradient id="~kcgT~gaMcm4K3_k5qXhZc" x1="32" x2="32" y1="60.611" y2="12.809" gradientUnits="userSpaceOnUse" spreadMethod="reflect"><stop offset="0" stop-color="#155cde"/><stop offset=".278" stop-color="#1f7fe5"/><stop offset=".569" stop-color="#279ceb"/><stop offset=".82" stop-color="#2cafef"/><stop offset="1" stop-color="#2eb5f0"/></linearGradient><path fill="url(#~kcgT~gaMcm4K3_k5qXhZc)" d="M57.345,20.417l-6.778-6.105C48.915,12.824,46.769,12,44.544,12h-3.777 c-0.932,0-1.735,0.647-1.943,1.555C38.112,16.663,35.316,19,32,19s-6.112-2.337-6.825-5.445C24.967,12.647,24.165,12,23.232,12 h-3.777c-2.225,0-4.37,0.824-6.023,2.313l-6.778,6.105c-0.845,0.768-0.876,2.087-0.069,2.894l4.103,4.103 c0.781,0.781,2.047,0.781,2.828,0L16,25v25c0,1.657,1.343,3,3,3h26c1.657,0,3-1.343,3-3V25l2.483,2.414 c0.781,0.781,2.047,0.781,2.828,0l4.103-4.103C58.222,22.504,58.19,21.186,57.345,20.417z"/><linearGradient id="~kcgT~gaMcm4K3_k5qXhZd" x1="37" x2="37" y1="62.172" y2="13.79" gradientUnits="userSpaceOnUse" spreadMethod="reflect"><stop offset="0" stop-color="#155cde"/><stop offset=".486" stop-color="#2185e6"/><stop offset="1" stop-color="#2eb5f0"/></linearGradient><path fill="url(#~kcgT~gaMcm4K3_k5qXhZd)" d="M37,27.5c0,1.381,1.119,2.5,2.5,2.5h1c1.381,0,2.5,1.119,2.5,2.5c0,1.381-1.119,2.5-2.5,2.5 H34c-1.657,0-3,1.343-3,3s1.343,3,3,3h1.5c1.381,0,2.5,1.119,2.5,2.5c0,1.381-1.119,2.5-2.5,2.5h-6c-1.933,0-3.5,1.567-3.5,3.5 s1.567,3.5,3.5,3.5H45c1.657,0,3-1.343,3-3V25h-8.5C38.119,25,37,26.119,37,27.5z"/><linearGradient id="~kcgT~gaMcm4K3_k5qXhZe" x1="17.5" x2="17.5" y1="29" y2="12" gradientUnits="userSpaceOnUse" spreadMethod="reflect"><stop offset="0" stop-color="#40aeef"/><stop offset="1" stop-color="#43bdf2"/></linearGradient><path fill="url(#~kcgT~gaMcm4K3_k5qXhZe)" d="M26,29c1.657,0,3-1.343,3-3s-1.343-3-3-3h-1.5c-1.381,0-2.5-1.119-2.5-2.5 c0-1.381,1.119-2.5,2.5-2.5h3.929c-1.616-0.968-2.822-2.56-3.254-4.445C24.967,12.647,24.165,12,23.232,12h-3.777 c-2.225,0-4.37,0.824-6.023,2.313l-6.778,6.105c-0.845,0.768-0.876,2.087-0.069,2.894l4.103,4.103c0.781,0.781,2.047,0.781,2.828,0 L16,25v4H26z"/></svg>