<?xml version="1.0" encoding="UTF-8"?>
<svg xmlns="http://www.w3.org/2000/svg" xmlns:xlink="http://www.w3.org/1999/xlink" width="48pt" height="48pt" viewBox="0 0 48 48" version="1.1">
<g id="surface9371757">
<path style="fill-rule:nonzero;fill:rgb(83.921569%,68.235294%,73.333333%);fill-opacity:1;stroke-width:10;stroke-linecap:butt;stroke-linejoin:round;stroke:rgb(100%,100%,100%);stroke-opacity:1;stroke-miterlimit:10;" d="M 157.660742 60.923184 C 157.660742 90.813919 122.467289 119.771495 112.646894 128.925347 C 101.345293 139.456721 86 153.009755 86 153.009755 C 86 153.009755 70.654707 139.456721 59.353106 128.925347 C 49.532711 119.771495 14.339258 90.813919 14.339258 60.923184 C 14.339258 39.149457 31.980421 21.493483 53.754147 21.493483 C 74.49103 21.493483 86 36.483286 86 36.483286 C 86 36.483286 97.50897 21.493483 118.245853 21.493483 C 140.019579 21.493483 157.660742 39.149457 157.660742 60.923184 Z M 157.660742 60.923184 " transform="matrix(0.263721,0,0,0.263721,1.32,1.32)"/>
<path style=" stroke:none;fill-rule:nonzero;fill:rgb(65.490196%,63.921569%,63.921569%);fill-opacity:1;" d="M 32.503906 6.988281 C 27.035156 6.988281 24 10.941406 24 10.941406 C 24 10.941406 20.964844 6.988281 15.496094 6.988281 C 9.753906 6.988281 5.101562 11.644531 5.101562 17.386719 C 5.101562 25.269531 14.382812 32.90625 16.972656 35.320312 C 19.953125 38.097656 24 41.671875 24 41.671875 C 24 41.671875 28.046875 38.097656 31.027344 35.320312 C 33.617188 32.90625 42.898438 25.269531 42.898438 17.386719 C 42.898438 11.644531 38.246094 6.988281 32.503906 6.988281 Z M 32.503906 6.988281 "/>
</g>
</svg>
