<svg fill="#000000" xmlns="http://www.w3.org/2000/svg"  viewBox="0 0 16 16" width="16px" height="16px"><path d="M 3.5 1 C 2.6774686 1 2 1.6774686 2 2.5 L 2 3.2617188 L 1 5.3886719 L 1 5.5 C 1 6.1468613 1.4209662 6.6977739 2 6.90625 L 2 12.5 C 2 13.322531 2.6774686 14 3.5 14 L 11.5 14 C 12.322531 14 13 13.322531 13 12.5 L 13 6.90625 C 13.579034 6.6977739 14 6.1468613 14 5.5 L 14 5.3886719 L 13 3.2617188 L 13 2.5 C 13 1.6774686 12.322531 1 11.5 1 L 3.5 1 z M 3.5 2 L 4 2 L 4 3 L 3 3 L 3 2.5 C 3 2.2185314 3.2185314 2 3.5 2 z M 5 2 L 6 2 L 6 3 L 5 3 L 5 2 z M 7 2 L 11.5 2 C 11.781469 2 12 2.2185314 12 2.5 L 12 3 L 7 3 L 7 2 z M 2.7597656 4 L 12.240234 4 L 12.962891 5.5371094 C 12.933653 5.7882454 12.760578 6 12.5 6 C 12.218531 6 12 5.7814686 12 5.5 L 12 5 L 11 5 L 11 5.5 C 11 5.7814686 10.781469 6 10.5 6 C 10.218531 6 10 5.7814686 10 5.5 L 10 5 L 9 5 L 9 5.5 C 9 5.7814686 8.7814686 6 8.5 6 C 8.2185314 6 8 5.7814686 8 5.5 L 8 5 L 7 5 L 7 5.5 C 7 5.7814686 6.7814686 6 6.5 6 C 6.2185314 6 6 5.7814686 6 5.5 L 6 5 L 5 5 L 5 5.5 C 5 5.7814686 4.7814686 6 4.5 6 C 4.2185314 6 4 5.7814686 4 5.5 L 4 5 L 3 5 L 3 5.5 C 3 5.7814686 2.7814686 6 2.5 6 C 2.2394216 6 2.0663466 5.7882454 2.0371094 5.5371094 L 2.7597656 4 z M 3.5 6.6074219 C 3.7666173 6.8486612 4.1159078 7 4.5 7 C 4.8840922 7 5.2333827 6.8486612 5.5 6.6074219 C 5.7666173 6.8486612 6.1159078 7 6.5 7 C 6.8840922 7 7.2333827 6.8486612 7.5 6.6074219 C 7.7666173 6.8486612 8.1159078 7 8.5 7 C 8.8840922 7 9.2333827 6.8486612 9.5 6.6074219 C 9.7666173 6.8486612 10.115908 7 10.5 7 C 10.884092 7 11.233383 6.8486612 11.5 6.6074219 C 11.644676 6.7383269 11.813432 6.8390779 12 6.90625 L 12 12.5 C 12 12.781469 11.781469 13 11.5 13 L 3.5 13 C 3.2185314 13 3 12.781469 3 12.5 L 3 6.9082031 C 3.1857342 6.8400582 3.3553105 6.7383391 3.5 6.6074219 z"/></svg>