<?xml version="1.0" encoding="UTF-8"?>
<svg xmlns="http://www.w3.org/2000/svg" xmlns:xlink="http://www.w3.org/1999/xlink" width="480pt" height="480pt" viewBox="0 0 480 480" version="1.1">
<g id="surface15049139">
<path style=" stroke:none;fill-rule:nonzero;fill:rgb(34.117647%,34.117647%,34.117647%);fill-opacity:1;" d="M 240 0 C 107.449219 0 0 107.449219 0 240 C 0 372.550781 107.449219 480 240 480 C 372.550781 480 480 372.550781 480 240 C 480 107.449219 372.550781 0 240 0 Z M 240 66 C 283.078125 66 318 100.921875 318 144 C 318 187.078125 283.078125 222 240 222 C 196.921875 222 162 187.078125 162 144 C 162 100.921875 196.921875 66 240 66 Z M 240 432 C 173.519531 432 114.960938 398.207031 80.496094 346.871094 C 107.398438 307.753906 193.105469 288 240 288 C 286.894531 288 372.601562 307.753906 399.503906 346.871094 C 365.039062 398.207031 306.480469 432 240 432 Z M 240 432 "/>
</g>
</svg>
