<svg fill="#000000" xmlns="http://www.w3.org/2000/svg"  viewBox="0 0 50 50" width="50px" height="50px"><path d="M 17.40625 3.03125 C 16.882813 3.050781 16.390625 3.277344 16.03125 3.65625 L 6.09375 13.59375 L 4.65625 15 L 6.09375 16.40625 L 16.03125 26.34375 C 16.511719 26.941406 17.289063 27.210938 18.035156 27.039063 C 18.785156 26.867188 19.367188 26.285156 19.539063 25.535156 C 19.710938 24.789063 19.441406 24.011719 18.84375 23.53125 L 12.3125 17 L 22.9375 17 C 28.777344 17 32.753906 18.476563 35.25 20.71875 C 37.746094 22.960938 38.9375 26.050781 38.9375 30 C 38.9375 38.199219 36.25 43.03125 36.25 43.03125 C 35.714844 43.996094 36.066406 45.214844 37.03125 45.75 C 37.996094 46.285156 39.214844 45.933594 39.75 44.96875 C 39.75 44.96875 42.9375 39.109375 42.9375 30 C 42.9375 25.191406 41.324219 20.789063 37.90625 17.71875 C 34.488281 14.648438 29.453125 13 22.9375 13 L 12.3125 13 L 18.84375 6.46875 C 19.4375 5.894531 19.617188 5.019531 19.296875 4.257813 C 18.980469 3.5 18.230469 3.011719 17.40625 3.03125 Z"/></svg>