<svg xmlns="http://www.w3.org/2000/svg" viewBox="0 0 64 64" width="256px" height="256px"><radialGradient id="sem7PRfyePMfN1NOPMnpTa" cx="34.833" cy="4765.917" r="26" gradientTransform="translate(0 -4730)" gradientUnits="userSpaceOnUse"><stop offset="0" stop-color="#afeeff"/><stop offset=".193" stop-color="#bbf1ff"/><stop offset=".703" stop-color="#d7f8ff"/><stop offset="1" stop-color="#e1faff"/></radialGradient><path fill="url(#sem7PRfyePMfN1NOPMnpTa)" d="M8,8L8,8c2.209,0,4-1.791,4-4l0,0c0-2.209-1.791-4-4-4l0,0C5.791,0,4,1.791,4,4l0,0	C4,6.209,5.791,8,8,8z"/><radialGradient id="sem7PRfyePMfN1NOPMnpTb" cx="32" cy="34" r="32" gradientTransform="matrix(1 0 0 -1 0 66)" gradientUnits="userSpaceOnUse"><stop offset="0" stop-color="#afeeff"/><stop offset=".193" stop-color="#bbf1ff"/><stop offset=".703" stop-color="#d7f8ff"/><stop offset="1" stop-color="#e1faff"/></radialGradient><path fill="url(#sem7PRfyePMfN1NOPMnpTb)" d="M48.5,40H60c2.209,0,4-1.791,4-4s-1.791-4-4-4H47.5c-1.933,0-3.5-1.567-3.5-3.5	s1.567-3.5,3.5-3.5h11c2.485,0,4.5-2.015,4.5-4.5S60.985,16,58.5,16H44c-2.209,0-4-1.791-4-4s1.791-4,4-4h2c2.209,0,4-1.791,4-4	s-1.791-4-4-4H20c-2.209,0-4,1.791-4,4s1.791,4,4,4h1c1.657,0,3,1.343,3,3s-1.343,3-3,3H8.5H6H5.5C3.567,14,2,15.567,2,17.5	S3.567,21,5.5,21H6h2.5H13c1.657,0,3,1.343,3,3s-1.343,3-3,3H5c-2.761,0-5,2.239-5,5s2.239,5,5,5h8.5c1.933,0,3.5,1.567,3.5,3.5	S15.433,44,13.5,44H4c-2.209,0-4,1.791-4,4s1.791,4,4,4h7.5c1.381,0,2.5,1.119,2.5,2.5S13.381,57,12,57H5.5	C3.567,57,2,58.567,2,60.5S3.567,64,5.5,64h53c1.933,0,3.5-1.567,3.5-3.5S60.433,57,58.5,57H53c-1.105,0-2-0.895-2-2s0.895-2,2-2h7	c2.209,0,4-1.791,4-4s-1.791-4-4-4H48.5c-1.381,0-2.5-1.119-2.5-2.5S47.119,40,48.5,40z"/><linearGradient id="sem7PRfyePMfN1NOPMnpTc" x1="32" x2="32" y1="-10.362" y2="41.39" gradientTransform="matrix(1 0 0 -1 0 66)" gradientUnits="userSpaceOnUse"><stop offset="0" stop-color="#ff5840"/><stop offset=".007" stop-color="#ff5840"/><stop offset=".989" stop-color="#fa528c"/><stop offset="1" stop-color="#fa528c"/></linearGradient><path fill="url(#sem7PRfyePMfN1NOPMnpTc)" d="M59,49.38C59.05,52,57.52,54,55.09,54H8.91C6.48,54,4.95,52,5,49.38L5.51,42l0.35-5L6,35	h52.05L59,49.38z"/><linearGradient id="sem7PRfyePMfN1NOPMnpTd" x1="32.5" x2="32.5" y1="9.408" y2="33.922" gradientTransform="matrix(1 0 0 -1 0 66)" gradientUnits="userSpaceOnUse"><stop offset="0" stop-color="#feaa53"/><stop offset=".612" stop-color="#ffcd49"/><stop offset="1" stop-color="#ffde44"/></linearGradient><path fill="url(#sem7PRfyePMfN1NOPMnpTd)" d="M27,37h11v3.5c0,3.038-2.462,5.5-5.5,5.5l0,0c-3.038,0-5.5-2.462-5.5-5.5V37z"/><path fill="#717171" d="M42.5,25.341c-0.828,0-1.5-0.672-1.5-1.5V19c0-4.963-4.037-9-9-9c-4.962,0-9,4.037-9,9v4.841	c0,0.828-0.671,1.5-1.5,1.5s-1.5-0.672-1.5-1.5V19c0-6.617,5.383-12,12-12s12,5.383,12,12v4.841	C44,24.669,43.328,25.341,42.5,25.341z"/><linearGradient id="sem7PRfyePMfN1NOPMnpTe" x1="13" x2="13" y1="8.511" y2="28.331" gradientTransform="matrix(1 0 0 -1 0 66)" gradientUnits="userSpaceOnUse"><stop offset="0" stop-color="#feaa53"/><stop offset=".612" stop-color="#ffcd49"/><stop offset="1" stop-color="#ffde44"/></linearGradient><path fill="url(#sem7PRfyePMfN1NOPMnpTe)" d="M14,57h-2c-1.105,0-2-0.895-2-2v-1h6v1C16,56.105,15.105,57,14,57z"/><linearGradient id="sem7PRfyePMfN1NOPMnpTf" x1="51" x2="51" y1="8.511" y2="28.331" gradientTransform="matrix(1 0 0 -1 0 66)" gradientUnits="userSpaceOnUse"><stop offset="0" stop-color="#feaa53"/><stop offset=".612" stop-color="#ffcd49"/><stop offset="1" stop-color="#ffde44"/></linearGradient><path fill="url(#sem7PRfyePMfN1NOPMnpTf)" d="M52,57h-2c-1.105,0-2-0.895-2-2v-1h6v1C54,56.105,53.105,57,52,57z"/><linearGradient id="sem7PRfyePMfN1NOPMnpTg" x1="32" x2="32" y1="-3.745" y2="61.972" gradientTransform="matrix(1 0 0 -1 0 66)" gradientUnits="userSpaceOnUse"><stop offset="0" stop-color="#ff735d"/><stop offset=".137" stop-color="#fe746b"/><stop offset=".486" stop-color="#fc758a"/><stop offset=".783" stop-color="#fa769d"/><stop offset=".989" stop-color="#fa76a4"/><stop offset="1" stop-color="#fa76a4"/></linearGradient><path fill="url(#sem7PRfyePMfN1NOPMnpTg)" d="M56.345,37.458C40.065,40.96,23.834,40.95,7.652,37.46c-1.828-0.394-2.992-2.181-2.563-3.99	L7.95,21.391C8.421,19.404,10.206,18,12.26,18h39.48c2.055,0,3.84,1.404,4.31,3.391l2.861,12.077	C59.339,35.278,58.174,37.065,56.345,37.458z"/><linearGradient id="sem7PRfyePMfN1NOPMnpTh" x1="-277.542" x2="-276.542" y1="2438.671" y2="2438.671" gradientTransform="rotate(-90 -47244.042 37645.841) scale(34.8142)" gradientUnits="userSpaceOnUse"><stop offset="0" stop-color="#ff6953"/><stop offset=".007" stop-color="#ff6953"/><stop offset=".989" stop-color="#fb6498"/><stop offset="1" stop-color="#fb6498"/></linearGradient><path fill="url(#sem7PRfyePMfN1NOPMnpTh)" d="M11,42H5.51L5,49.38c-0.001,0.041-0.001,0.082-0.001,0.122C4.998,52.062,6.518,54,8.91,54	h4.59c1.389,0,2.511-1.125,2.503-2.516c0-0.08-0.005-0.162-0.013-0.244C15.86,49.939,14.66,49,13.36,49H10.5C9.67,49,9,48.33,9,47.5	l0,0l0,0c0-0.83,0.67-1.5,1.5-1.5h0.39c1,0,1.92-0.68,2.079-1.66c0.02-0.118,0.029-0.235,0.029-0.349C12.996,42.887,12.097,42,11,42"/></svg>