<svg xmlns="http://www.w3.org/2000/svg" viewBox="0 0 64 64" width="256px" height="256px"><radialGradient id="bH_SSLkGPgOdIEtXSOKIga" cx="32.5" cy="31.5" r="31.004" gradientUnits="userSpaceOnUse" spreadMethod="reflect"><stop offset="0" stop-color="#f4e9c3"/><stop offset=".219" stop-color="#f8eecd"/><stop offset=".644" stop-color="#fdf4dc"/><stop offset="1" stop-color="#fff6e1"/></radialGradient><path fill="url(#bH_SSLkGPgOdIEtXSOKIga)" d="M11,54l-3.811,0c-2.086,0-3.958,1.514-4.168,3.59C2.78,59.972,4.665,62,7,62l51.811,0 c2.009,0,3.841-1.398,4.142-3.385c0.368-2.434-1.497-4.553-3.85-4.614c-0.809-0.021-1.608-0.396-1.923-1.141 C56.564,51.401,57.618,50,59,50l1.386,0c1.67,0,3.195-1.122,3.537-2.757C64.392,44.998,62.668,43,60.5,43l-10.357,0 c-1.308,0-2.499-0.941-2.63-2.242C47.363,39.261,48.534,38,50,38h7.869c1.451,0,2.789-0.972,3.071-2.395 C61.319,33.693,59.848,32,58,32H42v-6h18c2.335,0,4.22-2.028,3.979-4.41c-0.21-2.075-2.082-3.59-4.168-3.59h-1.704 c-0.996,0-1.92-0.681-2.08-1.664C55.824,15.083,56.785,14,58,14l0.357,0c1.308,0,2.499-0.941,2.63-2.242 C61.137,10.261,59.966,9,58.5,9h-14C43.672,9,43,8.328,43,7.5S43.672,6,44.5,6l3.857,0c1.308,0,2.499-0.941,2.63-2.242 C51.137,2.261,49.966,1,48.5,1L15.643,1c-1.308,0-2.499,0.941-2.63,2.242C12.863,4.739,14.034,6,15.5,6h3.393 c0.996,0,1.92,0.681,2.08,1.664C21.176,8.917,20.215,10,19,10L6.189,10c-2.086,0-3.958,1.514-4.168,3.59C1.78,15.972,3.665,18,6,18 l2.302,0c1.895,0,3.594,1.419,3.693,3.312C12.101,23.33,10.495,25,8.5,25l-3.311,0c-2.086,0-3.958,1.514-4.168,3.59 C0.78,30.972,2.665,33,5,33h17v11H9.131c-1.451,0-2.789,0.972-3.071,2.395C5.681,48.307,7.152,50,9,50h0l2,0c1.105,0,2,0.895,2,2v0 C13,53.105,12.105,54,11,54z"/><linearGradient id="bH_SSLkGPgOdIEtXSOKIgb" x1="19.5" x2="19.5" y1="51" y2="8" gradientUnits="userSpaceOnUse" spreadMethod="reflect"><stop offset="0" stop-color="#155cde"/><stop offset="1" stop-color="#2eb5f0"/></linearGradient><path fill="url(#bH_SSLkGPgOdIEtXSOKIgb)" d="M19.62,8h-0.004C13.978,8,9.199,12.272,8.401,18.024l0,0 c-0.506,3.649-0.534,7.351-0.083,11.008l1.539,13.936C10.471,47.571,14.287,51,18.796,51h0c4.983,0,9.023-4.163,9.023-9.299v-2.969 c0-3.174,0.757-5.658,1.731-8.67l0,0c1.161-3.59,1.632-7.379,1.387-11.155v0C30.538,12.769,25.59,8,19.62,8z"/><linearGradient id="bH_SSLkGPgOdIEtXSOKIgc" x1="19.5" x2="19.5" y1="14" y2="36.208" gradientUnits="userSpaceOnUse" spreadMethod="reflect"><stop offset="0" stop-color="#edfbff"/><stop offset="0" stop-color="#edfbff"/><stop offset=".256" stop-color="#e6f9ff"/><stop offset=".633" stop-color="#d2f5ff"/><stop offset="1" stop-color="#b8efff"/></linearGradient><path fill="url(#bH_SSLkGPgOdIEtXSOKIgc)" d="M24.144,19.916C23.239,18.941,22,17.607,22,17v-1c0-1.104-0.896-2-2-2s-2,0.896-2,2v0.997 c-0.037,0.554-1.626,2.021-2.48,2.811C13.401,21.764,11,23.981,11,27c0,1.104,0.896,2,2,2s2-0.896,2-2 c0-1.269,1.718-2.854,3.233-4.254c0.565-0.522,1.13-1.052,1.651-1.597c0.422,0.506,0.875,1,1.328,1.488 C22.583,24.114,24,25.642,24,27c0,1.104,0.896,2,2,2s2-0.896,2-2C28,24.071,25.862,21.768,24.144,19.916z"/><linearGradient id="bH_SSLkGPgOdIEtXSOKIgd" x1="-6.5" x2="-6.5" y1="59" y2="16" gradientTransform="matrix(-1 0 0 1 39 0)" gradientUnits="userSpaceOnUse" spreadMethod="reflect"><stop offset="0" stop-color="#155cde"/><stop offset="1" stop-color="#2eb5f0"/></linearGradient><path fill="url(#bH_SSLkGPgOdIEtXSOKIgd)" d="M45.38,16h0.004c5.637,0,10.417,4.272,11.214,10.024l0,0 c0.506,3.649,0.534,7.351,0.083,11.008l-1.539,13.936C54.529,55.571,50.713,59,46.204,59h0c-4.983,0-9.023-4.163-9.023-9.299 v-2.969c0-3.174-0.757-5.658-1.731-8.67l0,0c-1.161-3.59-1.632-7.379-1.387-11.155v0C34.462,20.769,39.41,16,45.38,16z"/><linearGradient id="bH_SSLkGPgOdIEtXSOKIge" x1="-6.5" x2="-6.5" y1="22" y2="44.208" gradientTransform="matrix(-1 0 0 1 39 0)" gradientUnits="userSpaceOnUse" spreadMethod="reflect"><stop offset="0" stop-color="#edfbff"/><stop offset="0" stop-color="#edfbff"/><stop offset=".256" stop-color="#e6f9ff"/><stop offset=".633" stop-color="#d2f5ff"/><stop offset="1" stop-color="#b8efff"/></linearGradient><path fill="url(#bH_SSLkGPgOdIEtXSOKIge)" d="M40.856,27.916C41.761,26.941,43,25.607,43,25v-1c0-1.104,0.896-2,2-2s2,0.896,2,2v0.997 c0.037,0.554,1.626,2.021,2.48,2.811C51.599,29.764,54,31.981,54,35c0,1.104-0.896,2-2,2s-2-0.896-2-2 c0-1.269-1.718-2.854-3.233-4.254c-0.565-0.522-1.13-1.052-1.651-1.597c-0.422,0.506-0.875,1-1.328,1.488 C42.417,32.114,41,33.642,41,35c0,1.104-0.896,2-2,2s-2-0.896-2-2C37,32.071,39.138,29.768,40.856,27.916z"/><linearGradient id="bH_SSLkGPgOdIEtXSOKIgf" x1="22.01" x2="22.01" y1="63.97" y2="30.404" gradientUnits="userSpaceOnUse" spreadMethod="reflect"><stop offset="0" stop-color="#0d47a1"/><stop offset=".365" stop-color="#135fba"/><stop offset=".734" stop-color="#1770cc"/><stop offset="1" stop-color="#1976d2"/></linearGradient><path fill="url(#bH_SSLkGPgOdIEtXSOKIgf)" d="M27.819,41.701v-2.969c0-0.964,0.077-1.861,0.201-2.732H21.5c-1.375,0-2.5,1.125-2.5,2.5 s1.125,2.5,2.5,2.5s2.5,1.125,2.5,2.5S22.875,46,21.5,46h-3c-1.375,0-2.5,1.125-2.5,2.5c0,1.287,0.989,2.342,2.242,2.474 C18.426,50.985,18.609,51,18.796,51h0C23.779,51,27.819,46.837,27.819,41.701z"/><linearGradient id="bH_SSLkGPgOdIEtXSOKIgg" x1="49.456" x2="49.456" y1="71.97" y2="38.404" gradientUnits="userSpaceOnUse" spreadMethod="reflect"><stop offset="0" stop-color="#0d47a1"/><stop offset=".365" stop-color="#135fba"/><stop offset=".734" stop-color="#1770cc"/><stop offset="1" stop-color="#1976d2"/></linearGradient><path fill="url(#bH_SSLkGPgOdIEtXSOKIgg)" d="M55.143,50.968L55.912,44H48.5c-1.375,0-2.5,1.125-2.5,2.5s1.125,2.5,2.5,2.5 s2.5,1.125,2.5,2.5S49.875,54,48.5,54h-3c-1.375,0-2.5,1.125-2.5,2.5c0,1.104,0.731,2.037,1.729,2.365 C45.21,58.947,45.701,59,46.204,59h0C50.713,59,54.529,55.571,55.143,50.968z"/></svg>