<svg xmlns="http://www.w3.org/2000/svg" viewBox="0 0 64 64" width="256px" height="256px"><radialGradient id="Qb_McQGxbSkMjvflvN4GGa" cx="32" cy="31.5" r="30.775" gradientUnits="userSpaceOnUse" spreadMethod="reflect"><stop offset="0" stop-color="#aaedff"/><stop offset=".331" stop-color="#c1f2ff"/><stop offset=".738" stop-color="#d7f7ff"/><stop offset="1" stop-color="#dff9ff"/></radialGradient><path fill="url(#Qb_McQGxbSkMjvflvN4GGa)" d="M58,20h1.5c2.168,0,3.892-1.998,3.422-4.243C62.58,14.122,61.056,13,59.386,13L52,13 c-1.105,0-2-0.895-2-2c0-1.105,0.895-2,2-2h1.385c1.67,0,3.195-1.122,3.537-2.757C57.392,3.998,55.668,2,53.5,2h-49 C2.575,2,1,3.575,1,5.5S2.575,9,4.5,9H6c1.105,0,2,0.895,2,2c0,1.105-0.895,2-2,2l-2.385,0c-1.67,0-3.195,1.122-3.537,2.757 C-0.392,18.002,1.332,20,3.5,20H18v12L3.615,32c-1.67,0-3.195,1.122-3.537,2.757C-0.392,37.002,1.332,39,3.5,39H6 c1.105,0,2,0.895,2,2c0,1.105-0.895,2-2,2H3.5c-2.168,0-3.892,1.998-3.422,4.243C0.42,48.878,1.944,50,3.615,50H11 c1.105,0,2,0.895,2,2c0,1.105-0.895,2-2,2l-1.385,0c-1.67,0-3.195,1.122-3.537,2.757C5.608,59.002,7.332,61,9.5,61h49 c1.925,0,3.5-1.575,3.5-3.5S60.425,54,58.5,54H58c-1.105,0-2-0.895-2-2c0-1.105,0.895-2,2-2h2.385c1.67,0,3.195-1.122,3.537-2.757 C64.392,44.998,62.668,43,60.5,43H40V31h20.385c1.67,0,3.195-1.122,3.537-2.757C64.392,25.998,62.668,24,60.5,24H58 c-1.105,0-2-0.895-2-2C56,20.895,56.896,20,58,20z"/><linearGradient id="Qb_McQGxbSkMjvflvN4GGb" x1="43" x2="43" y1="56.836" y2="19.836" gradientUnits="userSpaceOnUse" spreadMethod="reflect"><stop offset="0" stop-color="#fd7476"/><stop offset=".335" stop-color="#fc758c"/><stop offset=".715" stop-color="#fb769e"/><stop offset=".989" stop-color="#fb76a4"/></linearGradient><path fill="url(#Qb_McQGxbSkMjvflvN4GGb)" d="M47,19H32c2.209,0,4,1.791,4,4v25.5V51v3.5c0,0.825,0.675,1.5,1.5,1.5s1.5-0.675,1.5-1.5V53h2 v1.5c0,0.825,0.675,1.5,1.5,1.5s1.5-0.675,1.5-1.5V53h2v1.5c0,0.825,0.675,1.5,1.5,1.5s1.5-0.675,1.5-1.5V53h2v1.5 c0,0.825,0.675,1.5,1.5,1.5s1.5-0.675,1.5-1.5V51v-2.5V26C54,22.134,50.866,19,47,19z"/><linearGradient id="Qb_McQGxbSkMjvflvN4GGc" x1="21" x2="21" y1="45" y2="8" gradientUnits="userSpaceOnUse" spreadMethod="reflect"><stop offset="0" stop-color="#ff7361"/><stop offset=".13" stop-color="#fe746e"/><stop offset=".476" stop-color="#fc758b"/><stop offset=".775" stop-color="#fb769e"/><stop offset=".989" stop-color="#fb76a4"/></linearGradient><path fill="url(#Qb_McQGxbSkMjvflvN4GGc)" d="M28,41V15.5V13V9.5C28,8.675,27.325,8,26.5,8S25,8.675,25,9.5V11h-2V9.5 C23,8.675,22.325,8,21.5,8S20,8.675,20,9.5V11h-2V9.5C18,8.675,17.325,8,16.5,8S15,8.675,15,9.5V11h-2V9.5C13,8.675,12.325,8,11.5,8 S10,8.675,10,9.5V13v2.5V38c0,3.866,3.134,7,7,7h15C29.791,45,28,43.209,28,41z"/><linearGradient id="Qb_McQGxbSkMjvflvN4GGd" x1="32" x2="32" y1="45" y2="9.386" gradientUnits="userSpaceOnUse" spreadMethod="reflect"><stop offset="0" stop-color="#ff5840"/><stop offset="1" stop-color="#fa528c"/></linearGradient><path fill="url(#Qb_McQGxbSkMjvflvN4GGd)" d="M32,45L32,45c-2.2,0-4-1.8-4-4V23c0-2.209,1.791-4,4-4h0c2.2,0,4,1.8,4,4v18 C36,43.209,34.209,45,32,45z"/><linearGradient id="Qb_McQGxbSkMjvflvN4GGe" x1="45" x2="45" y1="45.624" y2="25.485" gradientUnits="userSpaceOnUse" spreadMethod="reflect"><stop offset="0" stop-color="#f2c26e"/><stop offset=".576" stop-color="#fac689"/><stop offset="1" stop-color="#fec898"/></linearGradient><path fill="url(#Qb_McQGxbSkMjvflvN4GGe)" d="M54,47H36v-7h18V47z M54,26H36v7h18V26z"/><linearGradient id="Qb_McQGxbSkMjvflvN4GGf" x1="19" x2="19" y1="36.968" y2="15.968" gradientUnits="userSpaceOnUse" spreadMethod="reflect"><stop offset="0" stop-color="#f2c26e"/><stop offset=".584" stop-color="#fac68a"/><stop offset="1" stop-color="#fec899"/></linearGradient><path fill="url(#Qb_McQGxbSkMjvflvN4GGf)" d="M28,38H10v-7h18V38z M28,17H10v7h18V17z"/></svg>