<svg xmlns="http://www.w3.org/2000/svg" viewBox="0 0 64 64" width="256px" height="256px"><radialGradient id="HNvWZxKcXQu76ts647zCoa" cx="32" cy="34.5" r="30.776" gradientTransform="matrix(1 0 0 -1 0 66)" gradientUnits="userSpaceOnUse"><stop offset="0" stop-color="#afeeff"/><stop offset=".193" stop-color="#bbf1ff"/><stop offset=".703" stop-color="#d7f8ff"/><stop offset="1" stop-color="#e1faff"/></radialGradient><path fill="url(#HNvWZxKcXQu76ts647zCoa)" d="M60.5,54h-5.393c-0.997,0-1.922-0.681-2.08-1.666C52.825,51.082,53.786,50,55,50h5.385	c1.67,0,3.195-1.123,3.537-2.758C64.392,44.997,62.668,43,60.5,43H47v-8c0-2.209,1.791-4,4-4h8.384c1.67,0,3.195-1.122,3.538-2.756	C63.392,25.998,61.668,24,59.5,24H58c-1.214,0-2.175-1.082-1.973-2.334C56.185,20.681,57.11,20,58.107,20H60.5	c2.168,0,3.892-1.998,3.422-4.243C63.579,14.122,62.059,13,60.389,13h-3.85c-1.431,0-2.353-0.681-2.512-1.666	C53.825,10.082,54.786,9,56,9h0.384c1.67,0,3.195-1.122,3.538-2.756C60.392,3.998,58.668,2,56.5,2H34.006H32.5H6.616	c-1.67,0-3.195,1.122-3.538,2.757C2.608,7.002,4.332,9,6.5,9h1.393c0.997,0,1.922,0.681,2.08,1.666C10.175,11.918,9.214,13,8,13	H4.616c-1.67,0-3.195,1.122-3.538,2.757C0.608,18.002,2.332,20,4.5,20H12c3.314,0,6,2.686,6,6l0,0c0,3.314-2.686,6-6,6H4.616	c-1.67,0-3.195,1.122-3.538,2.757C0.608,37.002,2.332,39,4.5,39h5.393c0.997,0,1.922,0.681,2.08,1.666	C12.175,41.918,11.214,43,10,43H3.5c-2.168,0-3.892,1.998-3.422,4.244C0.421,48.878,1.946,50,3.616,50h5.783	c0.65,0,1.184,0.135,1.601,0.362V53H5.172c-2.089,0-3.955,1.527-4.153,3.607C0.791,58.993,2.661,61,5,61h3.5H15h15.994H32.5h27.886	c1.67,0,3.195-1.122,3.537-2.757C64.392,55.998,62.668,54,60.5,54z"/><linearGradient id="HNvWZxKcXQu76ts647zCob" x1="31.5" x2="31.5" y1="-21.745" y2="56.897" gradientTransform="matrix(1 0 0 -1 0 66)" gradientUnits="userSpaceOnUse"><stop offset="0" stop-color="#feaa53"/><stop offset=".612" stop-color="#ffcd49"/><stop offset="1" stop-color="#ffde44"/></linearGradient><path fill="url(#HNvWZxKcXQu76ts647zCob)" d="M57,48.21V53c0,1.66-1.289,3-2.887,3H8.887C7.289,56,6,54.66,6,53v-4.79	c0-4.59,0.77-11.12,2.232-17.39C9.695,24.56,11.86,18.56,14.66,15h33.68C53.94,22.11,57,39.02,57,48.21z"/><linearGradient id="HNvWZxKcXQu76ts647zCoc" x1="32" x2="32" y1="23.702" y2="63.039" gradientTransform="matrix(1 0 0 -1 0 66)" gradientUnits="userSpaceOnUse"><stop offset="0" stop-color="#feaa53"/><stop offset=".612" stop-color="#ffcd49"/><stop offset="1" stop-color="#ffde44"/></linearGradient><path fill="url(#HNvWZxKcXQu76ts647zCoc)" d="M36,56h-8l3-35c0.05-0.55,0.53-0.96,1.09-0.91c0.49,0.04,0.87,0.43,0.91,0.91L36,56z"/><linearGradient id="HNvWZxKcXQu76ts647zCod" x1="46.509" x2="46.509" y1="23.702" y2="63.039" gradientTransform="matrix(1 0 0 -1 0 66)" gradientUnits="userSpaceOnUse"><stop offset="0" stop-color="#feaa53"/><stop offset=".612" stop-color="#ffcd49"/><stop offset="1" stop-color="#ffde44"/></linearGradient><path fill="url(#HNvWZxKcXQu76ts647zCod)" d="M43.57,47.3c0.11-2.9,0.2-5.81,0.16-8.72c-0.02-2.9-0.13-5.81-0.38-8.7	c-0.25-2.87-0.6-5.83-1.28-8.51l-0.02-0.09c-0.14-0.54,0.19-1.08,0.72-1.22c0.48-0.12,0.97,0.13,1.16,0.57	c1.28,2.88,2.09,5.72,2.87,8.65c0.76,2.92,1.38,5.87,1.91,8.83c0.55,2.96,0.96,5.93,1.36,8.92l0.51,4.48L51,56h-8l0.33-4.35	L43.57,47.3z"/><linearGradient id="HNvWZxKcXQu76ts647zCoe" x1="17.491" x2="17.491" y1="23.702" y2="63.039" gradientTransform="matrix(1 0 0 -1 0 66)" gradientUnits="userSpaceOnUse"><stop offset="0" stop-color="#feaa53"/><stop offset=".612" stop-color="#ffcd49"/><stop offset="1" stop-color="#ffde44"/></linearGradient><path fill="url(#HNvWZxKcXQu76ts647zCoe)" d="M21.95,21.28l-0.02,0.09c-0.68,2.68-1.03,5.64-1.28,8.51c-0.25,2.89-0.36,5.8-0.38,8.7	c-0.04,2.91,0.05,5.82,0.16,8.72l0.24,4.35L21,56h-8l0.42-4.49l0.51-4.48c0.4-2.99,0.81-5.96,1.36-8.92	c0.53-2.96,1.15-5.91,1.91-8.83c0.78-2.93,1.59-5.77,2.87-8.65c0.22-0.51,0.81-0.73,1.32-0.51C21.84,20.32,22.07,20.81,21.95,21.28z"/><linearGradient id="HNvWZxKcXQu76ts647zCof" x1="34.482" x2="28.965" y1="37.941" y2="66.725" gradientTransform="matrix(1 0 0 -1 0 66)" gradientUnits="userSpaceOnUse"><stop offset="0" stop-color="#ff5840"/><stop offset=".007" stop-color="#ff5840"/><stop offset=".989" stop-color="#fa528c"/><stop offset="1" stop-color="#fa528c"/></linearGradient><path fill="url(#HNvWZxKcXQu76ts647zCof)" d="M46.5,16h-30c-1.933,0-3.5-1.567-3.5-3.5l0,0c0-1.933,1.567-3.5,3.5-3.5h30	c1.933,0,3.5,1.567,3.5,3.5l0,0C50,14.433,48.433,16,46.5,16z"/></svg>